<svg aria-hidden="true" style="position: absolute; width: 0; height: 0; overflow: hidden;" version="1.1"
    xmlns="http://www.w3.org/2000/svg" xmlns:xlink="http://www.w3.org/1999/xlink">
    <defs>
        <symbol id="icon-modal-third-svg" viewBox="0 0 45 32">
            <path fill="#f00" style="fill: var(--color1, #f00)"
                d="M16.828 24.313l24.089-24.092 3.708 3.706-27.798 27.798-16.678-16.678 3.706-3.706 12.972 12.972z">
            </path>
        </symbol>
        <symbol id="icon-telephone-svg" viewBox="0 0 32 32">
            <path fill="#ff7129" style="fill: var(--color2, #ff7129)"
                d="M28 21.893v4.715c0 0.338-0.128 0.663-0.358 0.91s-0.545 0.398-0.882 0.421c-0.583 0.040-1.059 0.061-1.427 0.061-11.783 0-21.333-9.551-21.333-21.333 0-0.368 0.020-0.844 0.061-1.427 0.024-0.337 0.174-0.652 0.421-0.882s0.572-0.358 0.91-0.358h4.715c0.165-0 0.325 0.061 0.448 0.172s0.2 0.263 0.216 0.428c0.031 0.307 0.059 0.551 0.085 0.736 0.265 1.849 0.808 3.648 1.611 5.335 0.127 0.267 0.044 0.585-0.196 0.756l-2.877 2.056c1.759 4.099 5.026 7.366 9.125 9.125l2.053-2.872c0.084-0.117 0.206-0.201 0.346-0.238s0.288-0.022 0.418 0.039c1.687 0.801 3.485 1.343 5.333 1.607 0.185 0.027 0.43 0.056 0.733 0.085 0.164 0.017 0.316 0.094 0.427 0.217s0.172 0.282 0.172 0.447h-0.001z">
            </path>
        </symbol>
        <symbol id="icon-mail-svg" viewBox="0 0 32 32">
            <path fill="#ff7129" style="fill: var(--color2, #ff7129)"
                d="M4 4h24c0.354 0 0.693 0.14 0.943 0.391s0.391 0.589 0.391 0.943v21.333c0 0.354-0.141 0.693-0.391 0.943s-0.589 0.391-0.943 0.391h-24c-0.354 0-0.693-0.141-0.943-0.391s-0.39-0.589-0.39-0.943v-21.333c0-0.354 0.14-0.693 0.39-0.943s0.589-0.391 0.943-0.391zM16.080 15.577l-8.549-7.26-1.727 2.032 10.293 8.74 10.108-8.747-1.744-2.017-8.381 7.252z">
            </path>
        </symbol>
        <symbol id="icon-close-white" viewBox="0 0 32 32">
            <path fill="#f00" style="fill: var(--color1, #f00)"
                d="M16 12.768l11.314-11.314 3.232 3.232-11.314 11.314 11.314 11.314-3.232 3.232-11.314-11.314-11.314 11.314-3.232-3.232 11.314-11.314-11.314-11.314 3.232-3.232 11.314 11.314z">
            </path>
        </symbol>
        <symbol id="icon-close__black" viewBox="0 0 32 32">
            <path
                d="M16 14.115l6.6-6.6 1.885 1.885-6.6 6.6 6.6 6.6-1.885 1.885-6.6-6.6-6.6 6.6-1.885-1.885 6.6-6.6-6.6-6.6 1.885-1.885 6.6 6.6z">
            </path>
        </symbol>
        <symbol id="icon-gallery__right" viewBox="0 0 32 32">
            <path fill="#fff" style="fill: var(--color3, #fff)"
                d="M17.563 16l-6.6 6.6 1.885 1.885 8.485-8.485-8.485-8.485-1.885 1.885 6.6 6.6z"></path>
        </symbol>
        <symbol id="icon-gallery__left" viewBox="0 0 32 32">
            <path fill="#fff" style="fill: var(--color3, #fff)"
                d="M14.437 16l6.6 6.6-1.885 1.885-8.485-8.485 8.485-8.485 1.885 1.885-6.6 6.6z"></path>
        </symbol>
        <symbol id="scroll">
            <path fill="#fff"
                d="M11.141 4c-1.582 0-2.387.169-3.128.565a3.453 3.453 0 00-1.448 1.448C6.169 6.753 6 7.559 6 9.14v5.718c0 1.582.169 2.387.565 3.128.337.63.818 1.111 1.448 1.448.74.396 1.546.565 3.128.565h1.718c1.582 0 2.387-.169 3.128-.565a3.453 3.453 0 001.448-1.448c.396-.74.565-1.546.565-3.128V9.14c0-1.582-.169-2.387-.565-3.128a3.453 3.453 0 00-1.448-1.448C15.247 4.169 14.441 4 12.86 4h-1.72.001zm0-2h1.718c2.014 0 3.094.278 4.072.801a5.452 5.452 0 012.268 2.268c.523.978.801 2.058.801 4.072v5.718c0 2.014-.278 3.094-.801 4.072a5.452 5.452 0 01-2.268 2.268c-.978.523-2.058.801-4.072.801H11.14c-2.014 0-3.094-.278-4.072-.801A5.452 5.452 0 014.8 18.931c-.522-.978-.8-2.058-.8-4.072V9.14c0-2.014.278-3.094.801-4.072A5.452 5.452 0 017.07 2.801C8.047 2.278 9.127 2 11.141 2zM11 6h2v5h-2V6z">
            </path>
        </symbol>
    </defs>
</svg>